#N canvas 294 95 662 285 12;
#X obj 33 238 send toGUI;
#X text 177 247 send message to the Graphic User Interface on the Telephone
;
#X obj 38 26 receive fromSystem;
#X text 209 28 receive info (sensors) from the System (mobile device)
;
#X obj 37 66 list trim;
#X obj 36 101 route /motion;
#X text 208 63 filter the word list;
#X text 211 100 choose the System Message "motion";
#N canvas 89 97 834 545 speedlim 0;
#X msg 83 139 1;
#X obj 57 164 spigot 1;
#X obj 87 93 t b b;
#X msg 112 139 0;
#X obj 85 115 delay 200;
#X obj 60 49 inlet;
#X obj 59 213 outlet;
#X connect 0 0 1 1;
#X connect 1 0 2 0;
#X connect 1 0 6 0;
#X connect 2 0 4 0;
#X connect 2 1 3 0;
#X connect 3 0 1 1;
#X connect 4 0 0 0;
#X connect 5 0 1 0;
#X restore 36 146 pd speedlim;
#X text 212 147 smooth and filter noise from sensors;
#X msg 34 193 list /motionLabel roll(x): \$1 pitch(y): \$2 yaw(z):
\$3;
#X obj 494 198 osc~;
#X obj 496 227 dac~;
#X obj 496 175 * 1000;
#X msg 499 146 \$1;
#X connect 2 0 4 0;
#X connect 4 0 5 0;
#X connect 5 0 8 0;
#X connect 8 0 10 0;
#X connect 8 0 14 0;
#X connect 10 0 0 0;
#X connect 11 0 12 0;
#X connect 11 0 12 1;
#X connect 13 0 11 0;
#X connect 14 0 13 0;
